name rise32.9588peak41.5061fall63.4684.mot
datacolumns 19
datarows 23
range 11.93995800000000 11.97662500000000
endheader
time	ground_force1_vx	ground_force1_vy	ground_force1_vz	ground_force1_px	ground_force1_py	ground_force1_pz	ground_force2_vx	ground_force2_vy	ground_force2_vz	ground_force2_px	ground_force2_py	ground_force2_pz	ground_torque1_x	ground_torque1_y	ground_torque1_z	ground_torque2_x	ground_torque2_y	ground_torque2_z	
11.93995800000000	-38.99534400000000	808.15952300000004	45.04494400000000	0.11835500000000	0.00000000000000	0.11053700000000	0.00000000000000	0.00000000000000	0.00000000000000	0.00000000000000	0.00000000000000	0.00000000000000	0.00000000000000	19.12982900000000	0.00000000000000	0.00000000000000	0.00000000000000	0.00000000000000	
11.94162600000000	-39.46366300000000	806.30580699999996	44.87837400000000	0.11755400000000	0.00000000000000	0.11045500000000	0.00000000000000	0.00000000000000	0.00000000000000	0.00000000000000	0.00000000000000	0.00000000000000	0.00000000000000	19.06764000000000	0.00000000000000	0.00000000000000	0.00000000000000	0.00000000000000	
11.94329000000000	-39.95258300000000	804.35152800000003	44.70407200000000	0.11674900000000	0.00000000000000	0.11037100000000	0.00000000000000	0.00000000000000	0.00000000000000	0.00000000000000	0.00000000000000	0.00000000000000	0.00000000000000	19.00894900000000	0.00000000000000	0.00000000000000	0.00000000000000	0.00000000000000	
11.94495400000000	-40.46271500000000	802.29560100000003	44.52182500000000	0.11594200000000	0.00000000000000	0.11028600000000	0.00000000000000	0.00000000000000	0.00000000000000	0.00000000000000	0.00000000000000	0.00000000000000	0.00000000000000	18.95391500000000	0.00000000000000	0.00000000000000	0.00000000000000	0.00000000000000	
11.94661900000000	-40.99458800000000	800.13689299999999	44.33141500000000	0.11513000000000	0.00000000000000	0.11019900000000	0.00000000000000	0.00000000000000	0.00000000000000	0.00000000000000	0.00000000000000	0.00000000000000	0.00000000000000	18.90267500000000	0.00000000000000	0.00000000000000	0.00000000000000	0.00000000000000	
11.94828500000000	-41.54863800000000	797.87422700000002	44.13262200000000	0.11431500000000	0.00000000000000	0.11011200000000	-1.35963100000000	3.45121500000000	1.29131300000000	0.00000000000000	0.00000000000000	0.00000000000000	0.00000000000000	18.85534600000000	0.00000000000000	0.00000000000000	0.47852200000000	0.00000000000000	
11.94995900000000	-42.12520700000000	795.50637500000005	43.92522100000000	0.11349600000000	0.00000000000000	0.11002200000000	-2.19081500000000	6.76136800000000	2.20261500000000	0.00000000000000	0.00000000000000	0.00000000000000	0.00000000000000	18.81202400000000	0.00000000000000	0.00000000000000	0.81731900000000	0.00000000000000	
11.95162600000000	-42.72453700000000	793.03205600000001	43.70898400000000	0.11267300000000	0.00000000000000	0.10993200000000	-3.13369200000000	10.77746800000000	3.26231400000000	0.00000000000000	0.00000000000000	0.00000000000000	0.00000000000000	18.77278400000000	0.00000000000000	0.00000000000000	1.21168800000000	0.00000000000000	
11.95328600000000	-43.34676500000000	790.44993299999999	43.48368000000000	0.11184500000000	0.00000000000000	0.10984000000000	-4.16034300000000	15.46193500000000	4.44693200000000	0.00000000000000	0.00000000000000	0.00000000000000	0.00000000000000	18.73767500000000	0.00000000000000	0.00000000000000	1.65306800000000	0.00000000000000	
11.95495800000000	-43.99192300000000	787.75861599999996	43.24907900000000	0.11101300000000	0.00000000000000	0.10974700000000	-5.23561300000000	20.74677800000000	5.72481600000000	0.00000000000000	0.00000000000000	0.00000000000000	0.00000000000000	18.70672700000000	0.00000000000000	0.00000000000000	2.12988600000000	0.00000000000000	
11.95662300000000	-44.65992900000000	784.95665699999995	43.00494700000000	0.11017500000000	0.00000000000000	0.10965300000000	-6.31939600000000	26.53884700000000	7.05824100000000	0.33410000000000	0.00000000000000	-0.05470200000000	0.00000000000000	18.67994300000000	0.00000000000000	0.00000000000000	4.64080800000000	0.00000000000000	
11.95828900000000	-45.35059000000000	782.04255100000000	42.75105200000000	0.10933300000000	0.00000000000000	0.10955700000000	-7.36952100000000	32.72782400000000	8.40622500000000	0.33814600000000	0.00000000000000	-0.05522800000000	0.00000000000000	18.65730500000000	0.00000000000000	0.00000000000000	5.56892300000000	0.00000000000000	
11.95995900000000	-46.06359100000000	779.01473699999997	42.48716100000000	0.10848500000000	0.00000000000000	0.10946100000000	-8.34490200000000	39.19585500000000	9.72767900000000	0.34175200000000	0.00000000000000	-0.05572900000000	0.00000000000000	18.63876900000000	0.00000000000000	0.00000000000000	6.48946800000000	0.00000000000000	
11.96162700000000	-46.79850100000000	775.87159999999994	42.21304500000000	0.10763300000000	0.00000000000000	0.10936300000000	-9.20848700000000	45.82747800000000	10.98447300000000	0.34498500000000	0.00000000000000	-0.05620700000000	0.00000000000000	18.62426800000000	0.00000000000000	0.00000000000000	7.37630600000000	0.00000000000000	
11.96328600000000	-47.55476300000000	772.61147100000005	41.92847500000000	0.10677400000000	0.00000000000000	0.10926400000000	-9.92967200000000	52.51850100000000	12.14400900000000	0.34789900000000	0.00000000000000	-0.05666700000000	0.00000000000000	18.61371100000000	0.00000000000000	0.00000000000000	8.20677400000000	0.00000000000000	
11.96495300000000	-48.33170100000000	769.23263199999997	41.63322800000000	0.10591100000000	0.00000000000000	0.10916400000000	-10.48590600000000	59.18288300000000	13.18104400000000	0.35053600000000	0.00000000000000	-0.05710900000000	0.00000000000000	18.60698100000000	0.00000000000000	0.00000000000000	8.96301000000000	0.00000000000000	
11.96662300000000	-49.12851000000000	765.73331700000006	41.32708500000000	0.10504200000000	0.00000000000000	0.10906300000000	-10.86342900000000	65.75715599999999	14.07866400000000	0.35293300000000	0.00000000000000	-0.05753700000000	0.00000000000000	18.60393800000000	0.00000000000000	0.00000000000000	9.63270500000000	0.00000000000000	
11.96828500000000	-49.94425900000000	762.11171700000000	41.00983300000000	0.10416700000000	0.00000000000000	0.10896100000000	-11.05718500000000	72.20228500000000	14.82843100000000	0.35511900000000	0.00000000000000	-0.05795200000000	0.00000000000000	18.60441800000000	0.00000000000000	0.00000000000000	10.20928100000000	0.00000000000000	
11.96995600000000	-50.77789300000000	758.36598500000002	40.68126800000000	0.10328700000000	0.00000000000000	0.10885800000000	-11.07003200000000	78.50321500000000	15.42979700000000	0.35712000000000	0.00000000000000	-0.05835400000000	0.00000000000000	18.60823200000000	0.00000000000000	0.00000000000000	10.69156900000000	0.00000000000000	
11.97162700000000	-51.62822900000000	754.49424099999999	40.34119300000000	0.10240200000000	0.00000000000000	0.10875400000000	-10.91144600000000	84.66651400000001	15.88899000000000	0.35895600000000	0.00000000000000	-0.05874600000000	0.00000000000000	18.61516700000000	0.00000000000000	0.00000000000000	11.08309500000000	0.00000000000000	
11.97329000000000	-52.49396000000000	750.49457399999994	39.98942300000000	0.10151100000000	0.00000000000000	0.10864900000000	-10.59589400000000	90.71664199999999	16.21751300000000	0.36064700000000	0.00000000000000	-0.05912800000000	0.00000000000000	18.62499000000000	0.00000000000000	0.00000000000000	11.39109400000000	0.00000000000000	
11.97496000000000	-53.37365100000000	746.36505699999998	39.62578300000000	0.10061500000000	0.00000000000000	0.10854300000000	-10.14108400000000	96.69138500000000	16.43048200000000	0.36220700000000	0.00000000000000	-0.05950100000000	0.00000000000000	18.63744000000000	0.00000000000000	0.00000000000000	11.62539500000000	0.00000000000000	
11.97662500000000	-54.26574900000000	742.10374700000000	39.25011300000000	0.09971400000000	0.00000000000000	0.10843600000000	-9.56624800000000	102.63699300000000	16.54495400000000	0.36365100000000	0.00000000000000	-0.05986500000000	0.00000000000000	18.65223900000000	0.00000000000000	0.00000000000000	11.79728100000000	0.00000000000000	
